<?xml version="1.0" encoding="UTF-8" standalone="no"?>
<!-- Created with Inkscape (http://www.inkscape.org/) -->

<svg
   version="1.1"
   id="svg9"
   width="512"
   height="512"
   viewBox="0 0 512 512"
   sodipodi:docname="clock.svg"
   inkscape:version="1.1 (c68e22c387, 2021-05-23)"
   xmlns:inkscape="http://www.inkscape.org/namespaces/inkscape"
   xmlns:sodipodi="http://sodipodi.sourceforge.net/DTD/sodipodi-0.dtd"
   xmlns="http://www.w3.org/2000/svg"
   xmlns:svg="http://www.w3.org/2000/svg">
  <defs
     id="defs13" />
  <sodipodi:namedview
     id="namedview11"
     pagecolor="#ffffff"
     bordercolor="#666666"
     borderopacity="1.0"
     inkscape:pageshadow="2"
     inkscape:pageopacity="0.0"
     inkscape:pagecheckerboard="0"
     showgrid="false"
     inkscape:zoom="0.99023438"
     inkscape:cx="310.02761"
     inkscape:cy="229.74359"
     inkscape:window-width="1360"
     inkscape:window-height="715"
     inkscape:window-x="-8"
     inkscape:window-y="-8"
     inkscape:window-maximized="1"
     inkscape:current-layer="g15" />
  <g
     inkscape:groupmode="layer"
     inkscape:label="Image"
     id="g15">
    <path
       style="fill:#000000"
       d="M 224.09695,469.95099 C 188.61574,467.56713 152.54179,454.07726 122.83235,432.08305 113.3065,425.03096 96.404666,408.71887 88.553246,399 47.415006,348.07714 34.870906,278.95607 55.387516,216.24877 c 16.187,-49.47422 53.733724,-91.69734 101.395824,-114.02459 62.3402,-29.203166 138.14929,-22.439846 193.48517,17.26182 4.22695,3.0327 8.00134,5.514 8.38754,5.514 0.38619,0 7.21553,-6.525 15.1763,-14.5 7.96077,-7.975 15.05542,-14.499996 15.76589,-14.499996 2.02663,0 30.23411,28.593806 30.23411,30.648196 0,1.01873 -6.44951,8.28787 -14.57237,16.4243 l -14.57238,14.5967 6.04162,8.4154 c 15.81744,22.03216 27.65514,50.43293 32.68426,78.4154 2.48633,13.83419 2.97511,42.37607 0.98426,57.47558 -5.99198,45.44602 -25.85795,84.27914 -59.45934,116.2285 -32.41795,30.82411 -74.11709,48.81164 -120.10606,51.80952 -7.975,0.51986 -14.725,0.88829 -15,0.81873 -0.275,-0.0696 -5.55593,-0.46616 -11.73539,-0.88134 z m 32.87944,-2.99859 c 66.29576,-6.70642 123.30664,-46.32357 152.95441,-106.28883 10.73086,-21.70412 17.01951,-45.19031 18.94226,-70.74358 2.52195,-33.51668 -4.21683,-66.34392 -20.14995,-98.15829 -5.09974,-10.18288 -16.65324,-28.48976 -19.43906,-30.80179 -0.79844,-0.66264 -1.4517,-1.93175 -1.4517,-2.82025 0,-0.88849 6.59685,-8.22331 14.65967,-16.2996 l 14.65967,-14.68414 -6.72435,-7.51328 c -3.69839,-4.1323 -9.99257,-10.43832 -13.98707,-14.01338 l -7.26272,-6.500096 -14.40966,14.435416 C 366.49091,121.85635 359.56277,128 358.48919,128 c -1.02797,0 -3.50879,-1.29234 -5.51294,-2.87187 C 331.39782,108.12153 301.40264,95.129234 270.33234,89.331224 259.1905,87.252054 230.48155,86.465964 218.2575,87.905344 160.4241,94.715204 110.89793,125.30577 78.870106,174 c -26.48543,40.26772 -36.50616,92.44929 -26.93837,140.27794 4.59018,22.94601 15.54843,49.39055 28.47746,68.72206 38.976774,58.27812 107.639264,90.92509 176.567194,83.9524 z M 217.41732,426.51207 C 172.33681,420.06541 132.68425,393.53313 109.04785,354 85.549516,314.69782 81.733996,265.31871 98.821636,221.65568 c 14.362414,-36.69946 44.511694,-67.71525 80.399944,-82.71067 20.07151,-8.38661 37.78809,-11.93322 59.61076,-11.93322 42.14374,0 78.62513,15.39697 108.37328,45.73893 44.0294,44.9083 54.81151,114.61894 26.53377,171.55144 -20.98599,42.25178 -61.65351,72.95329 -107.64822,81.26788 -12.31605,2.22641 -36.429,2.69309 -48.67385,0.94203 z m 50.41502,-3.98994 C 328.36649,409.1292 373.24031,363.33314 384.45759,303.5 c 2.73569,-14.59223 2.51163,-41.24334 -0.46399,-55.18841 -6.51647,-30.53909 -21.26838,-56.86342 -43.97457,-78.4713 -20.50275,-19.51102 -47.89514,-33.33319 -76.18669,-38.44372 -12.82118,-2.316 -37.17882,-2.316 -50,0 -30.59046,5.5258 -57.0858,19.53092 -79.53064,42.03893 -21.40402,21.46429 -34.22481,45.07681 -40.655104,74.87609 -3.16035,14.64573 -3.14806,43.69417 0.0246,58.10148 4.59297,20.85714 13.098654,40.32568 24.849444,56.87761 7.93913,11.18294 24.93339,27.95488 35.8117,35.34325 11.33482,7.69842 24.35723,14.24863 37.0911,18.65665 8.48301,2.93653 13.97205,4.26059 29.4089,7.09402 5.92641,1.08779 39.71752,-0.25125 47,-1.86247 z m -51.3147,-123.17016 c -0.37691,-0.37692 -0.6853,-29.3203 -0.6853,-64.31864 0,-48.15926 0.29181,-63.92514 1.2,-64.83333 1.83547,-1.83547 42.15137,-1.68648 43.68501,0.16144 0.81988,0.9879 1.05925,18.89063 0.87244,65.25 l -0.25745,63.88856 -22.0647,0.26864 c -12.13558,0.14775 -22.37308,-0.0398 -22.75,-0.41667 z M 258.83234,234.5 V 172 h -20 -20 v 62.5 62.5 h 20 20 z m -85,-191.999996 v -22.5 h 65 65 v 22.5 22.5 h -65 -65 z m 128,0.5 v -20 h -63 -63 v 20 20 h 63 63 z"
       id="path99" />
  </g>
</svg>
